<svg width="174" height="23" viewBox="0 0 174 23" fill="none" xmlns="http://www.w3.org/2000/svg">
<g id="Group 8">
<g id="&#240;&#159;&#166;&#134; icon &#34;instagram icon&#34;">
<path id="Vector" d="M50.001 11.4248C50.001 9.32167 51.7913 7.61626 54.0005 7.61626C56.2096 7.61626 58.001 9.32167 58.001 11.4248C58.001 13.528 56.2096 15.2334 54.0005 15.2334C51.7913 15.2334 50.001 13.528 50.001 11.4248ZM47.8384 11.4248C47.8384 14.6649 50.5971 17.2914 54.0005 17.2914C57.4038 17.2914 60.1626 14.6649 60.1626 11.4248C60.1626 8.18476 57.4038 5.55832 54.0005 5.55832C50.5971 5.55832 47.8384 8.18476 47.8384 11.4248ZM58.9665 5.32571C58.9662 6.08289 59.6106 6.69694 60.406 6.69724C61.2013 6.69755 61.8463 6.08398 61.8466 5.32681C61.8469 4.56964 61.2024 3.95558 60.4071 3.95528C59.6122 3.95563 58.9672 4.5689 58.9665 5.32571ZM49.1523 20.7244C47.9823 20.6737 47.3464 20.4881 46.9237 20.3314C46.3635 20.1237 45.9637 19.8764 45.5434 19.4768C45.1231 19.0772 44.8629 18.697 44.6458 18.1636C44.481 17.7614 44.2861 17.1558 44.233 16.0419C44.1748 14.8377 44.1632 14.4759 44.1632 11.4249C44.1632 8.37395 44.1757 8.0132 44.233 6.80793C44.2862 5.69405 44.4826 5.08963 44.6458 4.68629C44.8639 4.15289 45.1237 3.7723 45.5434 3.37216C45.9631 2.97201 46.3625 2.72432 46.9237 2.51758C47.3462 2.36074 47.9823 2.1752 49.1523 2.12456C50.4172 2.06918 50.7972 2.05812 54.0005 2.05812C57.2037 2.05812 57.5841 2.07009 58.8501 2.12456C60.0201 2.17529 60.655 2.3622 61.0787 2.51758C61.6389 2.72432 62.0387 2.97256 62.459 3.37216C62.8793 3.77175 63.1385 4.15289 63.3566 4.68629C63.5214 5.08844 63.7163 5.69405 63.7694 6.80793C63.8276 8.0132 63.8392 8.37395 63.8392 11.4249C63.8392 14.4759 63.8276 14.8367 63.7694 16.0419C63.7162 17.1558 63.5203 17.7612 63.3566 18.1636C63.1385 18.697 62.8787 19.0776 62.459 19.4768C62.0393 19.876 61.6389 20.1237 61.0787 20.3314C60.6562 20.4882 60.0201 20.6738 58.8501 20.7244C57.5852 20.7798 57.2052 20.7908 54.0005 20.7908C50.7958 20.7908 50.4168 20.7798 49.1523 20.7244ZM49.0529 0.0691889C47.7754 0.124577 46.9024 0.317428 46.1401 0.59985C45.3505 0.891504 44.6822 1.28278 44.0143 1.91764C43.3464 2.55249 42.9364 3.18982 42.6301 3.94148C42.3334 4.66774 42.1309 5.49837 42.0727 6.71461C42.0135 7.93277 42 8.32222 42 11.4248C42 14.5275 42.0135 14.9169 42.0727 16.1351C42.1309 17.3514 42.3334 18.182 42.6301 18.9082C42.9364 19.6594 43.3465 20.2975 44.0143 20.9321C44.6821 21.5666 45.3505 21.9574 46.1401 22.2498C46.9039 22.5323 47.7754 22.7251 49.0529 22.7805C50.3331 22.8359 50.7415 22.8497 54.0005 22.8497C57.2594 22.8497 57.6685 22.8368 58.948 22.7805C60.2257 22.7251 61.098 22.5323 61.8609 22.2498C62.6499 21.9574 63.3188 21.5669 63.9867 20.9321C64.6546 20.2972 65.0637 19.6594 65.3709 18.9082C65.6675 18.182 65.8711 17.3513 65.9283 16.1351C65.9865 14.916 66 14.5275 66 11.4248C66 8.32222 65.9865 7.93277 65.9283 6.71461C65.8701 5.49828 65.6675 4.66728 65.3709 3.94148C65.0637 3.19027 64.6535 2.5535 63.9867 1.91764C63.3199 1.28178 62.6499 0.891504 61.8619 0.59985C61.098 0.317428 60.2256 0.123663 58.949 0.0691889C57.6695 0.0138012 57.2604 0 54.0014 0C50.7425 0 50.3331 0.0128872 49.0529 0.0691889Z" fill="#6B70BD"/>
</g>
<g id="&#240;&#159;&#166;&#134; icon &#34;Facebook F icon&#34;">
<path id="Vector_2" d="M12.0117 12.853L12.6783 8.71769H8.51062V6.03419C8.51062 4.90287 9.09281 3.8001 10.9594 3.8001H12.8541V0.279373C12.8541 0.279373 11.1347 0 9.49078 0C6.05859 0 3.81516 1.9806 3.81516 5.56604V8.71769H0V12.853H3.81516V22.8497H8.51062V12.853H12.0117Z" fill="#6B70BD"/>
</g>
<g id="&#240;&#159;&#166;&#134; icon &#34;twitter fill icon&#34;">
<path id="Vector_3" d="M173.53 2.70546C172.444 3.1636 171.277 3.47315 170.051 3.61306C171.302 2.89986 172.262 1.76815 172.714 0.420987C171.544 1.08218 170.247 1.56261 168.867 1.82015C167.762 0.70082 166.188 0 164.446 0C161.101 0 158.388 2.58288 158.388 5.77C158.388 6.22071 158.442 6.65903 158.544 7.08249C153.507 6.84104 149.045 4.54419 146.056 1.05494C145.536 1.9093 145.237 2.89986 145.237 3.9548C145.237 5.95573 146.307 7.72264 147.932 8.75654C146.938 8.72558 146.004 8.4668 145.187 8.03467V8.10896C145.187 10.9036 147.275 13.2351 150.047 13.765C149.538 13.8963 149.003 13.9656 148.452 13.9656C148.062 13.9656 147.681 13.931 147.311 13.8641C148.082 16.1548 150.319 17.8238 152.971 17.8684C150.897 19.4162 148.284 20.3386 145.446 20.3386C144.957 20.3386 144.475 20.3114 144 20.2581C146.682 21.8963 149.865 22.8497 153.286 22.8497C164.431 22.8497 170.524 14.061 170.524 6.43863C170.524 6.19099 170.518 5.94087 170.506 5.69323C171.69 4.8785 172.717 3.86442 173.527 2.70918L173.53 2.70546Z" fill="#6B70BD"/>
</g>
<g id="&#240;&#159;&#166;&#134; icon &#34;pinterest&#34;">
<path id="Vector_4" d="M97 11.425C97 16.1033 99.9548 20.1223 104.183 21.8893C104.149 21.0915 104.177 20.1338 104.392 19.2658C104.623 18.3383 105.936 13.0403 105.936 13.0403C105.936 13.0403 105.553 12.3108 105.553 11.2327C105.553 9.53962 106.583 8.27513 107.867 8.27513C108.958 8.27513 109.486 9.05567 109.486 9.99036C109.486 11.035 108.786 12.5976 108.426 14.0449C108.125 15.2568 109.064 16.2454 110.32 16.2454C112.594 16.2454 114.125 13.4651 114.125 10.171C114.125 7.66702 112.354 5.79282 109.132 5.79282C105.492 5.79282 103.224 8.37732 103.224 11.2642C103.224 12.2596 103.532 12.9615 104.015 13.5051C104.237 13.7547 104.268 13.8552 104.187 14.1418C104.13 14.352 103.998 14.8581 103.943 15.0587C103.863 15.3481 103.617 15.4515 103.342 15.3447C101.665 14.693 100.885 12.9449 100.885 10.9799C100.885 7.73441 103.76 3.84284 109.461 3.84284C114.043 3.84284 117.058 6.9993 117.058 10.3876C117.058 14.8694 114.441 18.2176 110.583 18.2176C109.288 18.2176 108.069 17.5509 107.651 16.7936C107.651 16.7936 106.955 19.4259 106.807 19.9342C106.553 20.8151 106.055 21.6955 105.599 22.3817C106.679 22.685 107.819 22.8502 109 22.8502C115.627 22.8502 121 17.735 121 11.425C121 5.11519 115.627 0 109 0C102.373 0 97 5.11519 97 11.425Z" fill="#6B70BD"/>
</g>
</g>
</svg>
