<svg width="17" height="16" viewBox="0 0 17 16" fill="none" xmlns="http://www.w3.org/2000/svg">
<path id="visibility_off" d="M11.4818 8.48485L10.4273 7.31313C10.5364 6.68014 10.3727 6.08754 9.93636 5.53535C9.5 4.98317 8.93636 4.76768 8.24546 4.88889L7.19091 3.71717C7.39697 3.60943 7.60606 3.52862 7.81818 3.47475C8.0303 3.42088 8.25758 3.39394 8.5 3.39394C9.40909 3.39394 10.1818 3.74748 10.8182 4.45455C11.4545 5.16162 11.7727 6.0202 11.7727 7.0303C11.7727 7.29966 11.7485 7.55219 11.7 7.78788C11.6515 8.02357 11.5788 8.25589 11.4818 8.48485ZM13.8091 11.0303L12.7545 9.89899C13.2152 9.50842 13.6242 9.08081 13.9818 8.61616C14.3394 8.15152 14.6455 7.6229 14.9 7.0303C14.2939 5.67003 13.4242 4.58923 12.2909 3.78788C11.1576 2.98653 9.89394 2.58586 8.5 2.58586C8.14848 2.58586 7.80303 2.61279 7.46364 2.66667C7.12424 2.72054 6.79091 2.80135 6.46364 2.90909L5.33636 1.65657C5.83333 1.42761 6.34242 1.25589 6.86364 1.14141C7.38485 1.02694 7.9303 0.969697 8.5 0.969697C10.3303 0.969697 11.9606 1.53199 13.3909 2.65657C14.8212 3.78115 15.8576 5.23906 16.5 7.0303C16.2212 7.82492 15.8545 8.56229 15.4 9.24242C14.9455 9.92256 14.4152 10.5185 13.8091 11.0303ZM14.1727 16L11.1182 12.6465C10.6939 12.7946 10.2667 12.9057 9.83636 12.9798C9.40606 13.0539 8.96061 13.0909 8.5 13.0909C6.6697 13.0909 5.03939 12.5286 3.60909 11.404C2.17879 10.2795 1.14242 8.82155 0.5 7.0303C0.754545 6.3165 1.07576 5.6532 1.46364 5.0404C1.85152 4.42761 2.29394 3.87879 2.79091 3.39394L0.790909 1.13131L1.80909 0L15.1909 14.8687L14.1727 16ZM3.80909 4.52525C3.45758 4.87542 3.13636 5.25926 2.84545 5.67677C2.55455 6.09428 2.30606 6.54546 2.1 7.0303C2.70606 8.39057 3.57576 9.47138 4.70909 10.2727C5.84242 11.0741 7.10606 11.4747 8.5 11.4747C8.74242 11.4747 8.97879 11.4579 9.20909 11.4242C9.43939 11.3906 9.67576 11.3535 9.91818 11.3131L9.26364 10.5455C9.1303 10.5859 9.00303 10.6162 8.88182 10.6364C8.76061 10.6566 8.63333 10.6667 8.5 10.6667C7.59091 10.6667 6.81818 10.3131 6.18182 9.60606C5.54545 8.89899 5.22727 8.04041 5.22727 7.0303C5.22727 6.88216 5.23636 6.74074 5.25455 6.60606C5.27273 6.47138 5.3 6.32997 5.33636 6.18182L3.80909 4.52525Z" fill="#3D3939"/>
</svg>
